<svg width="20" height="20" viewBox="0 0 20 20" fill="none" xmlns="http://www.w3.org/2000/svg">
<path d="M10.8484 0.751374C10.3798 0.282745 9.62 0.282745 9.15137 0.751374L0.751374 9.15137C0.282745 9.62 0.282745 10.3798 0.751374 10.8484C1.22 11.3171 1.9798 11.3171 2.44843 10.8484L2.7999 10.497V18.3999C2.7999 19.0626 3.33716 19.5999 3.9999 19.5999H6.3999C7.06264 19.5999 7.5999 19.0626 7.5999 18.3999V15.9999C7.5999 15.3372 8.13716 14.7999 8.7999 14.7999H11.1999C11.8626 14.7999 12.3999 15.3372 12.3999 15.9999V18.3999C12.3999 19.0626 12.9372 19.5999 13.5999 19.5999H15.9999C16.6626 19.5999 17.1999 19.0626 17.1999 18.3999V10.497L17.5514 10.8484C18.02 11.3171 18.7798 11.3171 19.2484 10.8484C19.7171 10.3798 19.7171 9.62 19.2484 9.15137L10.8484 0.751374Z" fill="#3DA9FC"/>
</svg>
