<svg width="16" height="16" viewBox="0 0 16 16" fill="none" xmlns="http://www.w3.org/2000/svg">
<path d="M4.74377 0.1875C2.23159 0.1875 0.1875 2.23279 0.1875 4.74561V11.2556C0.1875 13.7681 2.23279 15.8125 4.74561 15.8125H11.2556C13.7681 15.8125 15.8125 13.7672 15.8125 11.2544V4.74377C15.8125 2.23159 13.7672 0.1875 11.2544 0.1875H4.74377ZM12.6875 2.6875C13.0325 2.6875 13.3125 2.9675 13.3125 3.3125C13.3125 3.6575 13.0325 3.9375 12.6875 3.9375C12.3425 3.9375 12.0625 3.6575 12.0625 3.3125C12.0625 2.9675 12.3425 2.6875 12.6875 2.6875ZM8 3.9375C10.2406 3.9375 12.0625 5.75938 12.0625 8C12.0625 10.2406 10.2403 12.0625 8 12.0625C5.75938 12.0625 3.9375 10.2403 3.9375 8C3.9375 5.75969 5.75938 3.9375 8 3.9375ZM8 5.1875C6.44656 5.1875 5.1875 6.44656 5.1875 8C5.1875 9.55344 6.44656 10.8125 8 10.8125C9.55344 10.8125 10.8125 9.55344 10.8125 8C10.8125 6.44656 9.55344 5.1875 8 5.1875Z" fill="white"/>
</svg>
