<svg width="20" height="20" viewBox="0 0 20 20" fill="none" xmlns="http://www.w3.org/2000/svg">
<path d="M10 0C4.48609 0 0 4.48565 0 10C0 15.5143 4.48609 20 10 20C15.5139 20 20 15.5143 20 10C20 4.48565 15.5139 0 10 0ZM6.95652 14.3478H5.21739V7.82609H6.95652V14.3478ZM6.08696 6.52174C5.60652 6.52174 5.21739 6.13261 5.21739 5.65217C5.21739 5.17174 5.60652 4.78261 6.08696 4.78261C6.56739 4.78261 6.95652 5.17174 6.95652 5.65217C6.95652 6.13261 6.56739 6.52174 6.08696 6.52174ZM15.2174 14.3478H13.4783V12.1739V11.087C13.4783 10.25 12.7935 9.56522 11.9565 9.56522C11.1196 9.56522 10.4348 10.25 10.4348 11.087V14.3478H8.69565V7.82609H10.4348V8.61565C10.9426 8.12783 11.6313 7.82609 12.3913 7.82609C13.9522 7.82609 15.2174 9.0913 15.2174 10.6522V14.3478Z" fill="white"/>
</svg>
