<svg width="20" height="20" viewBox="0 0 20 20" fill="none" xmlns="http://www.w3.org/2000/svg">
<path d="M10 0.800049C4.92685 0.800049 0.800049 4.92685 0.800049 10C0.800049 15.0732 4.92685 19.2 10 19.2C15.0732 19.2 19.2 15.0732 19.2 10C19.2 4.92685 15.0732 0.800049 10 0.800049ZM14.4948 8.20965C14.4988 8.30405 14.5012 8.40005 14.5012 8.49645C14.5012 11.4236 12.272 14.8 8.19645 14.8C6.94525 14.8 5.78005 14.4332 4.80005 13.8045C4.97325 13.8252 5.14885 13.8352 5.32845 13.8352C6.36685 13.8352 7.32245 13.4816 8.08005 12.8872C7.11045 12.8696 6.29285 12.2276 6.01005 11.3484C6.14565 11.3744 6.28445 11.3884 6.42765 11.3884C6.62965 11.3884 6.82565 11.3616 7.01085 11.3104C5.99805 11.106 5.23445 10.2116 5.23445 9.13765C5.23445 9.12805 5.23445 9.11885 5.23445 9.10965C5.53325 9.27565 5.87445 9.37565 6.23805 9.38725C5.64285 8.98925 5.25245 8.31165 5.25245 7.54285C5.25245 7.13685 5.36125 6.75645 5.55205 6.42845C6.64525 7.76885 8.27805 8.65085 10.1192 8.74365C10.0812 8.58125 10.0612 8.41245 10.0612 8.23885C10.0612 7.01525 11.0532 6.02325 12.2772 6.02325C12.9144 6.02325 13.49 6.29205 13.894 6.72285C14.3984 6.62365 14.8732 6.43925 15.3012 6.18565C15.136 6.70245 14.7844 7.13685 14.3264 7.41125C14.7752 7.35685 15.2016 7.23845 15.5996 7.06205C15.3028 7.50645 14.9272 7.89725 14.4948 8.20965Z" fill="white"/>
</svg>
