<svg width="23" height="16" viewBox="0 0 23 16" fill="none" xmlns="http://www.w3.org/2000/svg">
<path d="M5.846 15.812C4.586 15.812 3.55 15.532 2.738 14.972C1.926 14.412 1.324 13.684 0.932 12.788C0.568 11.892 0.386 10.954 0.386 9.974C0.386 8.462 0.736 7.048 1.436 5.732C2.136 4.388 2.99 3.24 3.998 2.288C5.034 1.308 6.056 0.607999 7.064 0.187998L10.718 2.666C9.962 3.03 9.22 3.45 8.492 3.926C7.764 4.402 7.106 4.92 6.518 5.48C5.93 6.04 5.468 6.614 5.132 7.202L5.342 7.37C5.566 7.23 5.79 7.132 6.014 7.076C6.266 7.02 6.588 6.992 6.98 6.992C7.596 6.992 8.212 7.146 8.828 7.454C9.444 7.734 9.962 8.168 10.382 8.756C10.802 9.344 11.012 10.086 11.012 10.982C11.012 12.102 10.76 13.026 10.256 13.754C9.78 14.454 9.15 14.972 8.366 15.308C7.582 15.644 6.742 15.812 5.846 15.812ZM17.732 15.812C16.472 15.812 15.436 15.532 14.624 14.972C13.812 14.412 13.21 13.684 12.818 12.788C12.454 11.892 12.272 10.954 12.272 9.974C12.272 8.462 12.622 7.048 13.322 5.732C14.022 4.388 14.876 3.24 15.884 2.288C16.92 1.308 17.942 0.607999 18.95 0.187998L22.604 2.666C21.848 3.03 21.106 3.45 20.378 3.926C19.65 4.402 18.992 4.92 18.404 5.48C17.816 6.04 17.354 6.614 17.018 7.202L17.228 7.37C17.452 7.23 17.676 7.132 17.9 7.076C18.152 7.02 18.474 6.992 18.866 6.992C19.482 6.992 20.098 7.146 20.714 7.454C21.33 7.734 21.848 8.168 22.268 8.756C22.688 9.344 22.898 10.086 22.898 10.982C22.898 12.102 22.646 13.026 22.142 13.754C21.666 14.454 21.036 14.972 20.252 15.308C19.468 15.644 18.628 15.812 17.732 15.812Z" fill="white"/>
</svg>
